<svg width="119" height="37" viewBox="0 0 119 37" fill="none" xmlns="http://www.w3.org/2000/svg">
<path d="M108.499 24.3431L108.479 20.8415H108.978L114.85 14.6057H118.284L111.588 21.7049H111.137L108.499 24.3431ZM105.86 29.3414V9.69379H108.729V29.3414H105.86ZM115.166 29.3414L109.89 22.3381L111.866 20.333L118.687 29.3414H115.166Z" fill="#EDEDED"/>
<path d="M95.7894 29.6387C94.4079 29.6387 93.2023 29.3221 92.1726 28.689C91.1429 28.0558 90.3435 27.17 89.7742 26.0315C89.205 24.8931 88.9204 23.5628 88.9204 22.0406C88.9204 20.5121 89.205 19.1754 89.7742 18.0305C90.3435 16.8857 91.1429 15.9967 92.1726 15.3635C93.2023 14.7303 94.4079 14.4138 95.7894 14.4138C97.1709 14.4138 98.3764 14.7303 99.4062 15.3635C100.436 15.9967 101.235 16.8857 101.805 18.0305C102.374 19.1754 102.658 20.5121 102.658 22.0406C102.658 23.5628 102.374 24.8931 101.805 26.0315C101.235 27.17 100.436 28.0558 99.4062 28.689C98.3764 29.3221 97.1709 29.6387 95.7894 29.6387ZM95.799 27.2307C96.6944 27.2307 97.4363 26.9941 98.0247 26.5208C98.6131 26.0475 99.048 25.4176 99.3294 24.6309C99.6172 23.8442 99.7611 22.9776 99.7611 22.031C99.7611 21.0909 99.6172 20.2274 99.3294 19.4408C99.048 18.6477 98.6131 18.0113 98.0247 17.5317C97.4363 17.052 96.6944 16.8121 95.799 16.8121C94.8972 16.8121 94.1489 17.052 93.5541 17.5317C92.9657 18.0113 92.5276 18.6477 92.2398 19.4408C91.9584 20.2274 91.8177 21.0909 91.8177 22.031C91.8177 22.9776 91.9584 23.8442 92.2398 24.6309C92.5276 25.4176 92.9657 26.0475 93.5541 26.5208C94.1489 26.9941 94.8972 27.2307 95.799 27.2307Z" fill="#EDEDED"/>
<path d="M73.3838 12.2457V9.69379H88.5896V12.2457H82.4593V29.3414H79.5045V12.2457H73.3838Z" fill="#EDEDED"/>
<path d="M64.9992 35.1742C63.8288 35.1742 62.8215 35.0207 61.9773 34.7137C61.1394 34.4067 60.4551 34.0006 59.9242 33.4953C59.3934 32.9901 58.9969 32.4368 58.7346 31.8356L61.2002 30.8187C61.3729 31.1001 61.6031 31.3975 61.8909 31.7109C62.1851 32.0307 62.5817 32.3025 63.0805 32.5264C63.5858 32.7502 64.235 32.8621 65.028 32.8621C66.1153 32.8621 67.0139 32.5967 67.7238 32.0659C68.4337 31.5414 68.7887 30.7036 68.7887 29.5524V26.6551H68.6064C68.4337 26.9685 68.1843 27.3171 67.8581 27.7008C67.5383 28.0846 67.097 28.4171 66.5342 28.6985C65.9714 28.98 65.2391 29.1207 64.3373 29.1207C63.1733 29.1207 62.1244 28.8488 61.1906 28.3052C60.2632 27.7552 59.5277 26.9461 58.9841 25.878C58.4468 24.8036 58.1782 23.4829 58.1782 21.9159C58.1782 20.349 58.4436 19.0059 58.9745 17.8866C59.5117 16.7674 60.2472 15.9104 61.181 15.3156C62.1148 14.7144 63.1733 14.4138 64.3565 14.4138C65.2711 14.4138 66.0098 14.5673 66.5726 14.8742C67.1354 15.1748 67.5735 15.5266 67.8869 15.9295C68.2067 16.3325 68.4529 16.6874 68.6256 16.9944H68.8367V14.6056H71.6476V29.6675C71.6476 30.9338 71.3534 31.9731 70.765 32.7854C70.1766 33.5977 69.3803 34.1988 68.3762 34.589C67.3784 34.9791 66.2528 35.1742 64.9992 35.1742ZM64.9705 26.7415C65.7955 26.7415 66.4926 26.5496 67.0618 26.1658C67.6375 25.7757 68.0724 25.2193 68.3666 24.4966C68.6672 23.7675 68.8175 22.8945 68.8175 21.8775C68.8175 20.8862 68.6704 20.0132 68.3762 19.2585C68.082 18.5038 67.6503 17.9154 67.081 17.4933C66.5118 17.0648 65.8083 16.8505 64.9705 16.8505C64.107 16.8505 63.3875 17.0744 62.8119 17.5221C62.2363 17.9634 61.8014 18.5646 61.5072 19.3257C61.2194 20.0867 61.0755 20.9374 61.0755 21.8775C61.0755 22.8433 61.2226 23.6907 61.5168 24.4198C61.811 25.1489 62.2459 25.7182 62.8215 26.1275C63.4035 26.5368 64.1198 26.7415 64.9705 26.7415Z" fill="#EDEDED"/>
<path d="M52.0936 29.3413V14.6056H54.962V29.3413H52.0936ZM53.5422 12.3319C53.0433 12.3319 52.6148 12.1657 52.2566 11.8331C51.9049 11.4941 51.729 11.0912 51.729 10.6243C51.729 10.151 51.9049 9.74808 52.2566 9.4155C52.6148 9.07653 53.0433 8.90704 53.5422 8.90704C54.041 8.90704 54.4664 9.07653 54.8181 9.4155C55.1763 9.74808 55.3554 10.151 55.3554 10.6243C55.3554 11.0912 55.1763 11.4941 54.8181 11.8331C54.4664 12.1657 54.041 12.3319 53.5422 12.3319Z" fill="#EDEDED"/>
<path d="M36.4946 29.3413V9.69373H48.6784V12.2456H39.459V18.232H47.8054V20.7743H39.459V29.3413H36.4946Z" fill="#EDEDED"/>
<rect x="-0.00488281" y="0.693237" width="27.1619" height="9.16931" rx="4.58465" fill="#FF3617"/>
<rect x="-0.00488281" y="14.2552" width="27.1619" height="8.39806" rx="4.19903" fill="#FF3617"/>
<rect x="18.2739" y="27.3636" width="8.88299" height="8.65512" rx="4.32756" fill="#FF3617"/>
</svg>
